<mxfile host="app.diagrams.net" modified="2021-10-01T22:43:10.420Z" agent="5.0 (Windows NT 10.0; Win64; x64) AppleWebKit/537.36 (KHTML, like Gecko) Chrome/94.0.4606.61 Safari/537.36" etag="SVf1JxrH-42n3BX3tc8d" version="15.4.1" type="github">
  <diagram id="prtHgNgQTEPvFCAcTncT" name="Page-1">
    <mxGraphModel dx="1038" dy="547" grid="1" gridSize="10" guides="1" tooltips="1" connect="1" arrows="1" fold="1" page="1" pageScale="1" pageWidth="827" pageHeight="1169" math="0" shadow="0">
      <root>
        <mxCell id="0" />
        <mxCell id="1" parent="0" />
        <mxCell id="Lz6ceOsx05mpx3qVSabF-19" style="edgeStyle=orthogonalEdgeStyle;rounded=0;orthogonalLoop=1;jettySize=auto;html=1;entryX=0.576;entryY=-0.013;entryDx=0;entryDy=0;entryPerimeter=0;endArrow=none;endFill=0;" edge="1" parent="1" source="Lz6ceOsx05mpx3qVSabF-1" target="Lz6ceOsx05mpx3qVSabF-2">
          <mxGeometry relative="1" as="geometry">
            <Array as="points">
              <mxPoint x="490" y="280" />
              <mxPoint x="156" y="280" />
            </Array>
          </mxGeometry>
        </mxCell>
        <UserObject label="Log in" lucidchartObjectId="zCIeo~BGMiuJ" id="Lz6ceOsx05mpx3qVSabF-1">
          <mxCell style="html=1;overflow=block;blockSpacing=1;whiteSpace=wrap;shape=mxgraph.sitemap.sitemap;strokeColor=#000000;fillColor=#E6E6E6;whiteSpace=wrap;fontSize=16.7;fontColor=#333333;align=center;spacing=3.8;strokeOpacity=100;rounded=1;absoluteArcSize=1;arcSize=9;strokeWidth=1;" vertex="1" parent="1">
            <mxGeometry x="430" y="150" width="120" height="90" as="geometry" />
          </mxCell>
        </UserObject>
        <mxCell id="Lz6ceOsx05mpx3qVSabF-20" style="edgeStyle=orthogonalEdgeStyle;rounded=0;orthogonalLoop=1;jettySize=auto;html=1;entryX=0.5;entryY=0;entryDx=0;entryDy=0;endArrow=none;endFill=0;" edge="1" parent="1" source="Lz6ceOsx05mpx3qVSabF-2" target="Lz6ceOsx05mpx3qVSabF-15">
          <mxGeometry relative="1" as="geometry" />
        </mxCell>
        <mxCell id="Lz6ceOsx05mpx3qVSabF-2" value="P치gina superadministrador" style="html=1;overflow=block;blockSpacing=1;whiteSpace=wrap;rounded=1;arcSize=3;strokeColor=#5e5e5e;strokeOpacity=100;strokeWidth=2.3;whiteSpace=wrap;fontSize=16.7;fontColor=#333333;align=center;spacing=3.8;whiteSpace=wrap;" vertex="1" parent="1">
          <mxGeometry x="70" y="305" width="150" height="90" as="geometry" />
        </mxCell>
        <mxCell id="Lz6ceOsx05mpx3qVSabF-21" style="edgeStyle=orthogonalEdgeStyle;rounded=0;orthogonalLoop=1;jettySize=auto;html=1;entryX=0.5;entryY=0;entryDx=0;entryDy=0;endArrow=none;endFill=0;" edge="1" parent="1" source="Lz6ceOsx05mpx3qVSabF-3" target="Lz6ceOsx05mpx3qVSabF-11">
          <mxGeometry relative="1" as="geometry" />
        </mxCell>
        <mxCell id="Lz6ceOsx05mpx3qVSabF-3" value="P치gina administrador" style="html=1;overflow=block;blockSpacing=1;whiteSpace=wrap;rounded=1;arcSize=3;strokeColor=#5e5e5e;strokeOpacity=100;strokeWidth=2.3;whiteSpace=wrap;fontSize=16.7;fontColor=#333333;align=center;spacing=3.8;whiteSpace=wrap;" vertex="1" parent="1">
          <mxGeometry x="430" y="305" width="120" height="90" as="geometry" />
        </mxCell>
        <UserObject label="" lucidchartObjectId="zCIemD5Ue1uN" id="Lz6ceOsx05mpx3qVSabF-4">
          <mxCell style="html=1;jettySize=18;whiteSpace=wrap;fontSize=13;strokeColor=#5E5E5E;strokeWidth=1.5;rounded=1;arcSize=12;edgeStyle=orthogonalEdgeStyle;startArrow=none;;endArrow=none;;exitX=0.5;exitY=1.013;exitPerimeter=0;entryX=0.5;entryY=-0.012;entryPerimeter=0;" edge="1" parent="1" source="Lz6ceOsx05mpx3qVSabF-1" target="Lz6ceOsx05mpx3qVSabF-3">
            <mxGeometry width="100" height="100" relative="1" as="geometry">
              <Array as="points" />
            </mxGeometry>
          </mxCell>
        </UserObject>
        <mxCell id="Lz6ceOsx05mpx3qVSabF-16" style="edgeStyle=orthogonalEdgeStyle;rounded=0;orthogonalLoop=1;jettySize=auto;html=1;entryX=0.5;entryY=0;entryDx=0;entryDy=0;entryPerimeter=0;endArrow=none;endFill=0;exitX=0.5;exitY=1;exitDx=0;exitDy=0;" edge="1" parent="1" source="Lz6ceOsx05mpx3qVSabF-3" target="Lz6ceOsx05mpx3qVSabF-14">
          <mxGeometry relative="1" as="geometry" />
        </mxCell>
        <mxCell id="Lz6ceOsx05mpx3qVSabF-18" style="edgeStyle=orthogonalEdgeStyle;rounded=0;orthogonalLoop=1;jettySize=auto;html=1;entryX=0;entryY=0.5;entryDx=0;entryDy=0;endArrow=none;endFill=0;" edge="1" parent="1" source="Lz6ceOsx05mpx3qVSabF-5" target="Lz6ceOsx05mpx3qVSabF-17">
          <mxGeometry relative="1" as="geometry" />
        </mxCell>
        <mxCell id="Lz6ceOsx05mpx3qVSabF-23" style="edgeStyle=orthogonalEdgeStyle;rounded=0;orthogonalLoop=1;jettySize=auto;html=1;entryX=0.5;entryY=0;entryDx=0;entryDy=0;endArrow=none;endFill=0;" edge="1" parent="1" source="Lz6ceOsx05mpx3qVSabF-5" target="Lz6ceOsx05mpx3qVSabF-22">
          <mxGeometry relative="1" as="geometry">
            <Array as="points">
              <mxPoint x="769" y="410" />
              <mxPoint x="920" y="410" />
            </Array>
          </mxGeometry>
        </mxCell>
        <mxCell id="Lz6ceOsx05mpx3qVSabF-5" value="P치gina empleado" style="html=1;overflow=block;blockSpacing=1;whiteSpace=wrap;rounded=1;arcSize=3;strokeColor=#5e5e5e;strokeOpacity=100;strokeWidth=2.3;whiteSpace=wrap;fontSize=16.7;fontColor=#333333;align=center;spacing=3.8;whiteSpace=wrap;" vertex="1" parent="1">
          <mxGeometry x="707" y="305" width="123" height="90" as="geometry" />
        </mxCell>
        <UserObject label="" lucidchartObjectId="zCIegQiOHWow" id="Lz6ceOsx05mpx3qVSabF-6">
          <mxCell style="html=1;jettySize=18;whiteSpace=wrap;fontSize=13;strokeColor=#5E5E5E;strokeWidth=1.5;rounded=1;arcSize=12;edgeStyle=orthogonalEdgeStyle;startArrow=none;;endArrow=none;;exitX=0.5;exitY=1.013;exitPerimeter=0;entryX=0.5;entryY=-0.013;entryPerimeter=0;" edge="1" parent="1" source="Lz6ceOsx05mpx3qVSabF-1" target="Lz6ceOsx05mpx3qVSabF-5">
            <mxGeometry width="100" height="100" relative="1" as="geometry">
              <Array as="points">
                <mxPoint x="490" y="280" />
                <mxPoint x="769" y="280" />
              </Array>
            </mxGeometry>
          </mxCell>
        </UserObject>
        <UserObject label="" lucidchartObjectId="zCIerGAZHZ3q" id="Lz6ceOsx05mpx3qVSabF-7">
          <mxCell style="html=1;jettySize=18;whiteSpace=wrap;fontSize=13;strokeColor=#5E5E5E;strokeWidth=1.5;rounded=1;arcSize=12;edgeStyle=orthogonalEdgeStyle;startArrow=none;;endArrow=none;;exitX=0.5;exitY=1.013;exitPerimeter=0;entryX=0.5;entryY=-0.012;entryPerimeter=0;" edge="1" parent="1" source="Lz6ceOsx05mpx3qVSabF-3" target="Lz6ceOsx05mpx3qVSabF-8">
            <mxGeometry width="100" height="100" relative="1" as="geometry">
              <Array as="points">
                <mxPoint x="490" y="420" />
                <mxPoint x="310" y="420" />
              </Array>
            </mxGeometry>
          </mxCell>
        </UserObject>
        <UserObject label="crear empleado" lucidchartObjectId="zCIeUu~P4Kyo" id="Lz6ceOsx05mpx3qVSabF-8">
          <mxCell style="html=1;overflow=block;blockSpacing=1;whiteSpace=wrap;shape=mxgraph.sitemap.sitemap;strokeColor=#000000;fillColor=#E6E6E6;whiteSpace=wrap;fontSize=16.7;fontColor=#333333;align=center;spacing=3.8;strokeOpacity=100;rounded=1;absoluteArcSize=1;arcSize=9;strokeWidth=1;" vertex="1" parent="1">
            <mxGeometry x="250" y="455" width="120" height="90" as="geometry" />
          </mxCell>
        </UserObject>
        <mxCell id="Lz6ceOsx05mpx3qVSabF-9" value="editar empleado" style="html=1;overflow=block;blockSpacing=1;whiteSpace=wrap;rounded=1;arcSize=3;strokeColor=#5e5e5e;strokeOpacity=100;strokeWidth=2.3;whiteSpace=wrap;fontSize=16.7;fontColor=#333333;align=center;spacing=3.8;whiteSpace=wrap;" vertex="1" parent="1">
          <mxGeometry x="380" y="455" width="120" height="90" as="geometry" />
        </mxCell>
        <UserObject label="" lucidchartObjectId="zCIe_dY89ozb" id="Lz6ceOsx05mpx3qVSabF-10">
          <mxCell style="html=1;jettySize=18;whiteSpace=wrap;fontSize=13;strokeColor=#5E5E5E;strokeWidth=1.5;rounded=1;arcSize=12;edgeStyle=orthogonalEdgeStyle;startArrow=none;;endArrow=none;;exitX=0.5;exitY=1.013;exitPerimeter=0;entryX=0.5;entryY=-0.012;entryPerimeter=0;" edge="1" parent="1" source="Lz6ceOsx05mpx3qVSabF-3" target="Lz6ceOsx05mpx3qVSabF-9">
            <mxGeometry width="100" height="100" relative="1" as="geometry">
              <Array as="points">
                <mxPoint x="490" y="420" />
                <mxPoint x="440" y="420" />
              </Array>
            </mxGeometry>
          </mxCell>
        </UserObject>
        <mxCell id="Lz6ceOsx05mpx3qVSabF-11" value="Buscar empleado" style="html=1;overflow=block;blockSpacing=1;whiteSpace=wrap;rounded=1;arcSize=3;strokeColor=#5e5e5e;strokeOpacity=100;strokeWidth=2.3;whiteSpace=wrap;fontSize=16.7;fontColor=#333333;align=center;spacing=3.8;whiteSpace=wrap;" vertex="1" parent="1">
          <mxGeometry x="520" y="455" width="120" height="90" as="geometry" />
        </mxCell>
        <UserObject label="" lucidchartObjectId="zCIeAjfSBxGG" id="Lz6ceOsx05mpx3qVSabF-12">
          <mxCell style="html=1;jettySize=18;whiteSpace=wrap;fontSize=13;strokeColor=#5E5E5E;strokeWidth=1.5;rounded=1;arcSize=12;edgeStyle=orthogonalEdgeStyle;startArrow=none;;endArrow=none;;exitX=0.5;exitY=-0.012;exitPerimeter=0;entryX=0.5;entryY=1.013;entryPerimeter=0;" edge="1" parent="1" source="Lz6ceOsx05mpx3qVSabF-1" target="Lz6ceOsx05mpx3qVSabF-13">
            <mxGeometry width="100" height="100" relative="1" as="geometry">
              <Array as="points" />
            </mxGeometry>
          </mxCell>
        </UserObject>
        <UserObject label="P치gina de inicio" lucidchartObjectId="zCIea8bopKaq" id="Lz6ceOsx05mpx3qVSabF-13">
          <mxCell style="html=1;overflow=block;blockSpacing=1;whiteSpace=wrap;shape=mxgraph.sitemap.home;strokeColor=#000000;fillColor=#E6E6E6;whiteSpace=wrap;fontSize=16.7;fontColor=#333333;align=center;spacing=3.8;strokeOpacity=100;rounded=1;absoluteArcSize=1;arcSize=9;strokeWidth=1;" vertex="1" parent="1">
            <mxGeometry x="430" y="20" width="120" height="90" as="geometry" />
          </mxCell>
        </UserObject>
        <UserObject label="Retroalimentacion" lucidchartObjectId="zCIeyHm.1OL0" id="Lz6ceOsx05mpx3qVSabF-14">
          <mxCell style="html=1;overflow=block;blockSpacing=1;whiteSpace=wrap;shape=mxgraph.sitemap.sitemap;strokeColor=#000000;fillColor=#E6E6E6;whiteSpace=wrap;fontSize=16.7;fontColor=#333333;align=center;spacing=3.8;strokeOpacity=100;rounded=1;absoluteArcSize=1;arcSize=9;strokeWidth=1;" vertex="1" parent="1">
            <mxGeometry x="650" y="455" width="150" height="90" as="geometry" />
          </mxCell>
        </UserObject>
        <mxCell id="Lz6ceOsx05mpx3qVSabF-15" value="Dashboard administrativo" style="html=1;overflow=block;blockSpacing=1;whiteSpace=wrap;rounded=1;arcSize=3;strokeColor=#5e5e5e;strokeOpacity=100;strokeWidth=2.3;whiteSpace=wrap;fontSize=16.7;fontColor=#333333;align=center;spacing=3.8;whiteSpace=wrap;" vertex="1" parent="1">
          <mxGeometry x="85" y="440" width="120" height="90" as="geometry" />
        </mxCell>
        <mxCell id="Lz6ceOsx05mpx3qVSabF-17" value="Ver &lt;br&gt;Empleado" style="whiteSpace=wrap;html=1;aspect=fixed;" vertex="1" parent="1">
          <mxGeometry x="870" y="310" width="80" height="80" as="geometry" />
        </mxCell>
        <mxCell id="Lz6ceOsx05mpx3qVSabF-22" value="Ver Retroalimentacion" style="whiteSpace=wrap;html=1;aspect=fixed;strokeWidth=1;" vertex="1" parent="1">
          <mxGeometry x="870" y="430" width="100" height="100" as="geometry" />
        </mxCell>
      </root>
    </mxGraphModel>
  </diagram>
</mxfile>
